<svg width="162" height="15" viewBox="0 0 162 15" fill="none" xmlns="http://www.w3.org/2000/svg">
<path d="M4.68 5.486C4.584 5.486 4.5 5.456 4.428 5.396C4.368 5.324 4.338 5.24 4.338 5.144C4.338 5.072 4.356 5 4.392 4.928L5.634 1.706C5.694 1.586 5.766 1.478 5.85 1.382C5.946 1.274 6.084 1.22 6.264 1.22H7.344C7.452 1.22 7.536 1.262 7.596 1.346C7.668 1.418 7.692 1.514 7.668 1.634L7.164 4.892C7.14 5.048 7.08 5.186 6.984 5.306C6.888 5.426 6.744 5.486 6.552 5.486H4.68ZM0.99 5.486C0.894 5.486 0.81 5.456 0.738 5.396C0.678 5.324 0.648 5.24 0.648 5.144C0.648 5.072 0.666 5 0.702 4.928L1.962 1.706C2.01 1.586 2.076 1.478 2.16 1.382C2.256 1.274 2.394 1.22 2.574 1.22H3.654C3.762 1.22 3.846 1.262 3.906 1.346C3.978 1.418 4.002 1.514 3.978 1.634L3.474 4.892C3.462 5.048 3.402 5.186 3.294 5.306C3.198 5.426 3.054 5.486 2.862 5.486H0.99ZM12.7588 14C12.6268 14 12.5188 13.958 12.4348 13.874C12.3508 13.79 12.3088 13.682 12.3088 13.55V3.902H9.03277C8.91277 3.902 8.81077 3.86 8.72677 3.776C8.64277 3.692 8.60077 3.59 8.60077 3.47V1.85C8.60077 1.718 8.64277 1.61 8.72677 1.526C8.81077 1.442 8.91277 1.4 9.03277 1.4H18.4648C18.5968 1.4 18.7048 1.442 18.7888 1.526C18.8728 1.61 18.9148 1.718 18.9148 1.85V3.47C18.9148 3.59 18.8728 3.692 18.7888 3.776C18.7048 3.86 18.5968 3.902 18.4648 3.902H15.2068V13.55C15.2068 13.682 15.1648 13.79 15.0808 13.874C14.9968 13.958 14.8888 14 14.7568 14H12.7588ZM22.6866 14.18C21.9906 14.18 21.3726 14.024 20.8326 13.712C20.3046 13.388 19.8906 12.926 19.5906 12.326C19.3026 11.714 19.1586 10.976 19.1586 10.112V5.09C19.1586 4.958 19.2006 4.85 19.2846 4.766C19.3686 4.682 19.4706 4.64 19.5906 4.64H21.4986C21.6306 4.64 21.7386 4.682 21.8226 4.766C21.9066 4.85 21.9486 4.958 21.9486 5.09V10.004C21.9486 11.348 22.5366 12.02 23.7126 12.02C24.2766 12.02 24.7206 11.846 25.0446 11.498C25.3806 11.138 25.5486 10.64 25.5486 10.004V5.09C25.5486 4.958 25.5906 4.85 25.6746 4.766C25.7586 4.682 25.8666 4.64 25.9986 4.64H27.9066C28.0266 4.64 28.1286 4.682 28.2126 4.766C28.2966 4.85 28.3386 4.958 28.3386 5.09V13.55C28.3386 13.682 28.2966 13.79 28.2126 13.874C28.1286 13.958 28.0266 14 27.9066 14H26.1426C26.0106 14 25.9026 13.958 25.8186 13.874C25.7346 13.79 25.6926 13.682 25.6926 13.55V12.848C25.3806 13.28 24.9786 13.61 24.4866 13.838C23.9946 14.066 23.3946 14.18 22.6866 14.18ZM30.8561 14C30.7361 14 30.6341 13.958 30.5501 13.874C30.4661 13.79 30.4241 13.682 30.4241 13.55V5.09C30.4241 4.97 30.4661 4.868 30.5501 4.784C30.6341 4.688 30.7361 4.64 30.8561 4.64H32.6201C32.7401 4.64 32.8421 4.688 32.9261 4.784C33.0221 4.868 33.0701 4.97 33.0701 5.09V5.81C33.3701 5.438 33.7361 5.15 34.1681 4.946C34.6121 4.742 35.1221 4.64 35.6981 4.64H36.4721C36.5921 4.64 36.6941 4.682 36.7781 4.766C36.8621 4.85 36.9041 4.958 36.9041 5.09V6.638C36.9041 6.77 36.8621 6.878 36.7781 6.962C36.6941 7.046 36.5921 7.088 36.4721 7.088H34.8881C34.3601 7.088 33.9461 7.238 33.6461 7.538C33.3461 7.826 33.1961 8.24 33.1961 8.78V13.55C33.1961 13.682 33.1541 13.79 33.0701 13.874C32.9861 13.958 32.8781 14 32.7461 14H30.8561ZM38.4983 14C38.3783 14 38.2763 13.958 38.1923 13.874C38.1083 13.79 38.0663 13.682 38.0663 13.55V5.09C38.0663 4.958 38.1083 4.85 38.1923 4.766C38.2763 4.682 38.3783 4.64 38.4983 4.64H40.2983C40.4303 4.64 40.5383 4.682 40.6223 4.766C40.7063 4.85 40.7483 4.958 40.7483 5.09V13.55C40.7483 13.682 40.7063 13.79 40.6223 13.874C40.5383 13.958 40.4303 14 40.2983 14H38.4983ZM38.4443 3.2C38.3243 3.2 38.2223 3.158 38.1383 3.074C38.0543 2.99 38.0123 2.882 38.0123 2.75V1.31C38.0123 1.178 38.0543 1.07 38.1383 0.985999C38.2223 0.89 38.3243 0.842 38.4443 0.842H40.3343C40.4663 0.842 40.5743 0.89 40.6583 0.985999C40.7543 1.07 40.8023 1.178 40.8023 1.31V2.75C40.8023 2.882 40.7543 2.99 40.6583 3.074C40.5743 3.158 40.4663 3.2 40.3343 3.2H38.4443ZM43.0719 14C42.9519 14 42.8499 13.958 42.7659 13.874C42.6819 13.79 42.6399 13.682 42.6399 13.55V12.344C42.6399 12.224 42.6639 12.116 42.7119 12.02C42.7719 11.924 42.8379 11.834 42.9099 11.75L47.3199 6.728H43.2339C43.1019 6.728 42.9939 6.686 42.9099 6.602C42.8259 6.518 42.7839 6.416 42.7839 6.296V5.09C42.7839 4.958 42.8259 4.85 42.9099 4.766C42.9939 4.682 43.1019 4.64 43.2339 4.64H50.2539C50.3859 4.64 50.4939 4.682 50.5779 4.766C50.6619 4.85 50.7039 4.958 50.7039 5.09V6.386C50.7039 6.494 50.6799 6.59 50.6319 6.674C50.5839 6.758 50.5239 6.842 50.4519 6.926L46.1319 11.912H50.6319C50.7519 11.912 50.8539 11.954 50.9379 12.038C51.0219 12.122 51.0639 12.224 51.0639 12.344V13.55C51.0639 13.682 51.0219 13.79 50.9379 13.874C50.8539 13.958 50.7519 14 50.6319 14H43.0719ZM53.0622 14C52.9422 14 52.8402 13.958 52.7562 13.874C52.6722 13.79 52.6302 13.682 52.6302 13.55V5.09C52.6302 4.958 52.6722 4.85 52.7562 4.766C52.8402 4.682 52.9422 4.64 53.0622 4.64H54.7362C54.8562 4.64 54.9582 4.682 55.0422 4.766C55.1382 4.85 55.1862 4.958 55.1862 5.09V5.702C55.4262 5.366 55.7562 5.078 56.1762 4.838C56.6082 4.598 57.1182 4.472 57.7062 4.46C59.0982 4.436 60.0522 4.964 60.5682 6.044C60.8442 5.576 61.2402 5.198 61.7562 4.91C62.2842 4.61 62.8602 4.46 63.4842 4.46C64.1082 4.46 64.6722 4.604 65.1762 4.892C65.6802 5.168 66.0762 5.6 66.3642 6.188C66.6642 6.764 66.8142 7.508 66.8142 8.42V13.55C66.8142 13.682 66.7722 13.79 66.6882 13.874C66.6042 13.958 66.5022 14 66.3822 14H64.6002C64.4802 14 64.3782 13.958 64.2942 13.874C64.2102 13.79 64.1682 13.682 64.1682 13.55V8.564C64.1682 8.072 64.0962 7.688 63.9522 7.412C63.8082 7.124 63.6162 6.92 63.3762 6.8C63.1482 6.68 62.8902 6.62 62.6022 6.62C62.3502 6.62 62.1042 6.68 61.8642 6.8C61.6362 6.92 61.4442 7.124 61.2882 7.412C61.1442 7.688 61.0722 8.072 61.0722 8.564V13.55C61.0722 13.682 61.0302 13.79 60.9462 13.874C60.8622 13.958 60.7542 14 60.6222 14H58.8582C58.7262 14 58.6182 13.958 58.5342 13.874C58.4502 13.79 58.4082 13.682 58.4082 13.55V8.564C58.4082 8.072 58.3362 7.688 58.1922 7.412C58.0482 7.124 57.8562 6.92 57.6162 6.8C57.3882 6.68 57.1362 6.62 56.8602 6.62C56.6082 6.62 56.3622 6.686 56.1222 6.818C55.8822 6.938 55.6842 7.136 55.5282 7.412C55.3842 7.688 55.3122 8.066 55.3122 8.546V13.55C55.3122 13.682 55.2702 13.79 55.1862 13.874C55.1022 13.958 55.0002 14 54.8802 14H53.0622ZM73.0401 14C72.9201 14 72.8181 13.958 72.7341 13.874C72.6501 13.79 72.6081 13.682 72.6081 13.55V5.09C72.6081 4.958 72.6501 4.85 72.7341 4.766C72.8181 4.682 72.9201 4.64 73.0401 4.64H74.7141C74.8341 4.64 74.9361 4.682 75.0201 4.766C75.1161 4.85 75.1641 4.958 75.1641 5.09V5.702C75.4041 5.366 75.7341 5.078 76.1541 4.838C76.5861 4.598 77.0961 4.472 77.6841 4.46C79.0761 4.436 80.0301 4.964 80.5461 6.044C80.8221 5.576 81.2181 5.198 81.7341 4.91C82.2621 4.61 82.8381 4.46 83.4621 4.46C84.0861 4.46 84.6501 4.604 85.1541 4.892C85.6581 5.168 86.0541 5.6 86.3421 6.188C86.6421 6.764 86.7921 7.508 86.7921 8.42V13.55C86.7921 13.682 86.7501 13.79 86.6661 13.874C86.5821 13.958 86.4801 14 86.3601 14H84.5781C84.4581 14 84.3561 13.958 84.2721 13.874C84.1881 13.79 84.1461 13.682 84.1461 13.55V8.564C84.1461 8.072 84.0741 7.688 83.9301 7.412C83.7861 7.124 83.5941 6.92 83.3541 6.8C83.1261 6.68 82.8681 6.62 82.5801 6.62C82.3281 6.62 82.0821 6.68 81.8421 6.8C81.6141 6.92 81.4221 7.124 81.2661 7.412C81.1221 7.688 81.0501 8.072 81.0501 8.564V13.55C81.0501 13.682 81.0081 13.79 80.9241 13.874C80.8401 13.958 80.7321 14 80.6001 14H78.8361C78.7041 14 78.5961 13.958 78.5121 13.874C78.4281 13.79 78.3861 13.682 78.3861 13.55V8.564C78.3861 8.072 78.3141 7.688 78.1701 7.412C78.0261 7.124 77.8341 6.92 77.5941 6.8C77.3661 6.68 77.1141 6.62 76.8381 6.62C76.5861 6.62 76.3401 6.686 76.1001 6.818C75.8601 6.938 75.6621 7.136 75.5061 7.412C75.3621 7.688 75.2901 8.066 75.2901 8.546V13.55C75.2901 13.682 75.2481 13.79 75.1641 13.874C75.0801 13.958 74.9781 14 74.8581 14H73.0401ZM91.5473 14.18C90.9113 14.18 90.3413 14.06 89.8373 13.82C89.3333 13.568 88.9313 13.232 88.6313 12.812C88.3313 12.392 88.1813 11.924 88.1813 11.408C88.1813 10.556 88.5233 9.884 89.2073 9.392C89.9033 8.9 90.8153 8.564 91.9433 8.384L94.3013 8.042V7.718C94.3013 7.25 94.1933 6.89 93.9773 6.638C93.7613 6.386 93.3833 6.26 92.8433 6.26C92.4473 6.26 92.1293 6.338 91.8893 6.494C91.6493 6.65 91.4633 6.854 91.3313 7.106C91.2353 7.262 91.0973 7.34 90.9173 7.34H89.2073C89.0753 7.34 88.9733 7.304 88.9013 7.232C88.8293 7.148 88.7993 7.052 88.8113 6.944C88.8113 6.74 88.8893 6.5 89.0453 6.224C89.2013 5.948 89.4413 5.678 89.7653 5.414C90.0893 5.138 90.5033 4.91 91.0073 4.73C91.5113 4.55 92.1293 4.46 92.8613 4.46C93.6173 4.46 94.2653 4.55 94.8053 4.73C95.3453 4.91 95.7773 5.162 96.1013 5.486C96.4253 5.81 96.6653 6.188 96.8213 6.62C96.9773 7.04 97.0553 7.496 97.0553 7.988V13.55C97.0553 13.682 97.0133 13.79 96.9293 13.874C96.8453 13.958 96.7373 14 96.6053 14H94.8413C94.7213 14 94.6193 13.958 94.5353 13.874C94.4513 13.79 94.4093 13.682 94.4093 13.55V12.884C94.2533 13.112 94.0433 13.328 93.7793 13.532C93.5153 13.724 93.1973 13.88 92.8253 14C92.4653 14.12 92.0393 14.18 91.5473 14.18ZM92.2673 12.308C92.6633 12.308 93.0173 12.224 93.3293 12.056C93.6413 11.888 93.8873 11.63 94.0673 11.282C94.2473 10.934 94.3373 10.496 94.3373 9.968V9.662L92.6633 9.932C92.0153 10.04 91.5413 10.202 91.2413 10.418C90.9413 10.634 90.7913 10.898 90.7913 11.21C90.7913 11.438 90.8573 11.636 90.9893 11.804C91.1333 11.972 91.3193 12.098 91.5473 12.182C91.7753 12.266 92.0153 12.308 92.2673 12.308ZM99.5047 14C99.3727 14 99.2647 13.958 99.1807 13.874C99.0967 13.79 99.0547 13.682 99.0547 13.55V1.67C99.0547 1.538 99.0967 1.43 99.1807 1.346C99.2647 1.262 99.3727 1.22 99.5047 1.22H101.449C101.569 1.22 101.671 1.262 101.755 1.346C101.839 1.43 101.881 1.538 101.881 1.67V5.72C102.205 5.336 102.601 5.03 103.069 4.802C103.537 4.574 104.101 4.46 104.761 4.46C105.469 4.46 106.093 4.622 106.633 4.946C107.185 5.258 107.617 5.72 107.929 6.332C108.241 6.932 108.397 7.664 108.397 8.528V13.55C108.397 13.682 108.355 13.79 108.271 13.874C108.187 13.958 108.079 14 107.947 14H105.985C105.865 14 105.763 13.958 105.679 13.874C105.595 13.79 105.553 13.682 105.553 13.55V8.636C105.553 8 105.397 7.508 105.085 7.16C104.773 6.8 104.329 6.62 103.753 6.62C103.189 6.62 102.733 6.8 102.385 7.16C102.049 7.508 101.881 8 101.881 8.636V13.55C101.881 13.682 101.839 13.79 101.755 13.874C101.671 13.958 101.569 14 101.449 14H99.5047ZM113.125 14.18C112.489 14.18 111.919 14.06 111.415 13.82C110.911 13.568 110.509 13.232 110.209 12.812C109.909 12.392 109.759 11.924 109.759 11.408C109.759 10.556 110.101 9.884 110.785 9.392C111.481 8.9 112.393 8.564 113.521 8.384L115.879 8.042V7.718C115.879 7.25 115.771 6.89 115.555 6.638C115.339 6.386 114.961 6.26 114.421 6.26C114.025 6.26 113.707 6.338 113.467 6.494C113.227 6.65 113.041 6.854 112.909 7.106C112.813 7.262 112.675 7.34 112.495 7.34H110.785C110.653 7.34 110.551 7.304 110.479 7.232C110.407 7.148 110.377 7.052 110.389 6.944C110.389 6.74 110.467 6.5 110.623 6.224C110.779 5.948 111.019 5.678 111.343 5.414C111.667 5.138 112.081 4.91 112.585 4.73C113.089 4.55 113.707 4.46 114.439 4.46C115.195 4.46 115.843 4.55 116.383 4.73C116.923 4.91 117.355 5.162 117.679 5.486C118.003 5.81 118.243 6.188 118.399 6.62C118.555 7.04 118.633 7.496 118.633 7.988V13.55C118.633 13.682 118.591 13.79 118.507 13.874C118.423 13.958 118.315 14 118.183 14H116.419C116.299 14 116.197 13.958 116.113 13.874C116.029 13.79 115.987 13.682 115.987 13.55V12.884C115.831 13.112 115.621 13.328 115.357 13.532C115.093 13.724 114.775 13.88 114.403 14C114.043 14.12 113.617 14.18 113.125 14.18ZM113.845 12.308C114.241 12.308 114.595 12.224 114.907 12.056C115.219 11.888 115.465 11.63 115.645 11.282C115.825 10.934 115.915 10.496 115.915 9.968V9.662L114.241 9.932C113.593 10.04 113.119 10.202 112.819 10.418C112.519 10.634 112.369 10.898 112.369 11.21C112.369 11.438 112.435 11.636 112.567 11.804C112.711 11.972 112.897 12.098 113.125 12.182C113.353 12.266 113.593 12.308 113.845 12.308ZM121.082 14C120.95 14 120.842 13.958 120.758 13.874C120.674 13.79 120.632 13.682 120.632 13.55V1.67C120.632 1.538 120.674 1.43 120.758 1.346C120.842 1.262 120.95 1.22 121.082 1.22H122.882C123.002 1.22 123.104 1.262 123.188 1.346C123.272 1.43 123.314 1.538 123.314 1.67V13.55C123.314 13.682 123.272 13.79 123.188 13.874C123.104 13.958 123.002 14 122.882 14H121.082ZM125.859 14C125.727 14 125.619 13.958 125.535 13.874C125.451 13.79 125.409 13.682 125.409 13.55V1.67C125.409 1.538 125.451 1.43 125.535 1.346C125.619 1.262 125.727 1.22 125.859 1.22H127.659C127.779 1.22 127.881 1.262 127.965 1.346C128.049 1.43 128.091 1.538 128.091 1.67V13.55C128.091 13.682 128.049 13.79 127.965 13.874C127.881 13.958 127.779 14 127.659 14H125.859ZM132.94 14.18C132.304 14.18 131.734 14.06 131.23 13.82C130.726 13.568 130.324 13.232 130.024 12.812C129.724 12.392 129.574 11.924 129.574 11.408C129.574 10.556 129.916 9.884 130.6 9.392C131.296 8.9 132.208 8.564 133.336 8.384L135.694 8.042V7.718C135.694 7.25 135.586 6.89 135.37 6.638C135.154 6.386 134.776 6.26 134.236 6.26C133.84 6.26 133.522 6.338 133.282 6.494C133.042 6.65 132.856 6.854 132.724 7.106C132.628 7.262 132.49 7.34 132.31 7.34H130.6C130.468 7.34 130.366 7.304 130.294 7.232C130.222 7.148 130.192 7.052 130.204 6.944C130.204 6.74 130.282 6.5 130.438 6.224C130.594 5.948 130.834 5.678 131.158 5.414C131.482 5.138 131.896 4.91 132.4 4.73C132.904 4.55 133.522 4.46 134.254 4.46C135.01 4.46 135.658 4.55 136.198 4.73C136.738 4.91 137.17 5.162 137.494 5.486C137.818 5.81 138.058 6.188 138.214 6.62C138.37 7.04 138.448 7.496 138.448 7.988V13.55C138.448 13.682 138.406 13.79 138.322 13.874C138.238 13.958 138.13 14 137.998 14H136.234C136.114 14 136.012 13.958 135.928 13.874C135.844 13.79 135.802 13.682 135.802 13.55V12.884C135.646 13.112 135.436 13.328 135.172 13.532C134.908 13.724 134.59 13.88 134.218 14C133.858 14.12 133.432 14.18 132.94 14.18ZM133.66 12.308C134.056 12.308 134.41 12.224 134.722 12.056C135.034 11.888 135.28 11.63 135.46 11.282C135.64 10.934 135.73 10.496 135.73 9.968V9.662L134.056 9.932C133.408 10.04 132.934 10.202 132.634 10.418C132.334 10.634 132.184 10.898 132.184 11.21C132.184 11.438 132.25 11.636 132.382 11.804C132.526 11.972 132.712 12.098 132.94 12.182C133.168 12.266 133.408 12.308 133.66 12.308ZM144.138 14.18C143.394 14.18 142.752 14.096 142.212 13.928C141.684 13.748 141.252 13.532 140.916 13.28C140.592 13.028 140.346 12.776 140.178 12.524C140.022 12.26 139.938 12.038 139.926 11.858C139.914 11.726 139.956 11.618 140.052 11.534C140.148 11.45 140.244 11.408 140.34 11.408H142.086C142.122 11.408 142.158 11.414 142.194 11.426C142.23 11.438 142.266 11.468 142.302 11.516C142.458 11.624 142.62 11.75 142.788 11.894C142.956 12.026 143.148 12.14 143.364 12.236C143.592 12.332 143.874 12.38 144.21 12.38C144.606 12.38 144.942 12.302 145.218 12.146C145.494 11.978 145.632 11.744 145.632 11.444C145.632 11.228 145.566 11.048 145.434 10.904C145.314 10.76 145.08 10.628 144.732 10.508C144.384 10.388 143.868 10.256 143.184 10.112C142.536 9.968 141.984 9.776 141.528 9.536C141.072 9.296 140.73 8.996 140.502 8.636C140.274 8.264 140.16 7.82 140.16 7.304C140.16 6.836 140.304 6.386 140.592 5.954C140.892 5.522 141.33 5.168 141.906 4.892C142.482 4.604 143.202 4.46 144.066 4.46C144.726 4.46 145.302 4.544 145.794 4.712C146.298 4.868 146.718 5.072 147.054 5.324C147.39 5.564 147.642 5.816 147.81 6.08C147.99 6.332 148.086 6.554 148.098 6.746C148.11 6.866 148.074 6.968 147.99 7.052C147.906 7.136 147.81 7.178 147.702 7.178H146.1C146.04 7.178 145.986 7.172 145.938 7.16C145.89 7.136 145.848 7.106 145.812 7.07C145.668 6.974 145.518 6.866 145.362 6.746C145.218 6.614 145.044 6.5 144.84 6.404C144.636 6.308 144.372 6.26 144.048 6.26C143.652 6.26 143.346 6.35 143.13 6.53C142.926 6.698 142.824 6.914 142.824 7.178C142.824 7.346 142.878 7.502 142.986 7.646C143.094 7.79 143.316 7.922 143.652 8.042C143.988 8.162 144.498 8.288 145.182 8.42C145.998 8.564 146.646 8.78 147.126 9.068C147.606 9.356 147.948 9.692 148.152 10.076C148.368 10.448 148.476 10.85 148.476 11.282C148.476 11.846 148.308 12.35 147.972 12.794C147.636 13.226 147.144 13.568 146.496 13.82C145.86 14.06 145.074 14.18 144.138 14.18ZM150.456 14C150.336 14 150.234 13.958 150.15 13.874C150.066 13.79 150.024 13.682 150.024 13.55V5.09C150.024 4.958 150.066 4.85 150.15 4.766C150.234 4.682 150.336 4.64 150.456 4.64H152.256C152.388 4.64 152.496 4.682 152.58 4.766C152.664 4.85 152.706 4.958 152.706 5.09V13.55C152.706 13.682 152.664 13.79 152.58 13.874C152.496 13.958 152.388 14 152.256 14H150.456ZM150.402 3.2C150.282 3.2 150.18 3.158 150.096 3.074C150.012 2.99 149.97 2.882 149.97 2.75V1.31C149.97 1.178 150.012 1.07 150.096 0.985999C150.18 0.89 150.282 0.842 150.402 0.842H152.292C152.424 0.842 152.532 0.89 152.616 0.985999C152.712 1.07 152.76 1.178 152.76 1.31V2.75C152.76 2.882 152.712 2.99 152.616 3.074C152.532 3.158 152.424 3.2 152.292 3.2H150.402ZM158.473 5.486C158.377 5.486 158.293 5.45 158.221 5.378C158.161 5.294 158.137 5.198 158.149 5.09L158.671 1.814C158.695 1.658 158.755 1.52 158.851 1.4C158.947 1.28 159.091 1.22 159.283 1.22H161.155C161.251 1.22 161.329 1.256 161.389 1.328C161.449 1.4 161.479 1.478 161.479 1.562C161.479 1.646 161.467 1.718 161.443 1.778L160.183 5.018C160.135 5.138 160.063 5.246 159.967 5.342C159.883 5.438 159.745 5.486 159.553 5.486H158.473ZM154.801 5.486C154.693 5.486 154.609 5.45 154.549 5.378C154.489 5.294 154.465 5.198 154.477 5.09L154.981 1.814C155.005 1.658 155.065 1.52 155.161 1.4C155.257 1.28 155.401 1.22 155.593 1.22H157.465C157.561 1.22 157.639 1.256 157.699 1.328C157.771 1.4 157.807 1.478 157.807 1.562C157.807 1.646 157.789 1.718 157.753 1.778L156.493 5.018C156.445 5.138 156.373 5.246 156.277 5.342C156.193 5.438 156.061 5.486 155.881 5.486H154.801Z" fill="#F34C35"/>
</svg>
