<svg width="66" height="10" viewBox="0 0 66 10" fill="none" xmlns="http://www.w3.org/2000/svg">
<path d="M1.224 9C1.144 9 1.076 8.972 1.02 8.916C0.964 8.86 0.936 8.792 0.936 8.712V0.9C0.936 0.812 0.964 0.74 1.02 0.684C1.076 0.628 1.144 0.599999 1.224 0.599999H4.44C5.064 0.599999 5.608 0.7 6.072 0.9C6.536 1.092 6.896 1.388 7.152 1.788C7.408 2.18 7.536 2.672 7.536 3.264C7.536 3.864 7.408 4.36 7.152 4.752C6.896 5.136 6.536 5.424 6.072 5.616C5.608 5.808 5.064 5.904 4.44 5.904H2.652V8.712C2.652 8.792 2.624 8.86 2.568 8.916C2.52 8.972 2.452 9 2.364 9H1.224ZM2.628 4.572H4.38C4.844 4.572 5.2 4.464 5.448 4.248C5.696 4.024 5.82 3.696 5.82 3.264C5.82 2.864 5.704 2.544 5.472 2.304C5.24 2.056 4.876 1.932 4.38 1.932H2.628V4.572ZM8.88216 9C8.80216 9 8.73416 8.972 8.67816 8.916C8.62216 8.86 8.59416 8.792 8.59416 8.712V0.767999C8.59416 0.687999 8.62216 0.62 8.67816 0.564C8.73416 0.508 8.80216 0.48 8.88216 0.48H9.87816C9.95816 0.48 10.0262 0.508 10.0822 0.564C10.1382 0.62 10.1662 0.687999 10.1662 0.767999V8.712C10.1662 8.792 10.1382 8.86 10.0822 8.916C10.0262 8.972 9.95816 9 9.87816 9H8.88216ZM13.4499 9.12C13.0339 9.12 12.6579 9.04 12.3219 8.88C11.9859 8.712 11.7179 8.492 11.5179 8.22C11.3259 7.94 11.2299 7.628 11.2299 7.284C11.2299 6.724 11.4539 6.28 11.9019 5.952C12.3579 5.616 12.9579 5.392 13.7019 5.28L15.3459 5.04V4.788C15.3459 4.452 15.2619 4.192 15.0939 4.008C14.9259 3.824 14.6379 3.732 14.2299 3.732C13.9419 3.732 13.7059 3.792 13.5219 3.912C13.3459 4.024 13.2139 4.176 13.1259 4.368C13.0619 4.472 12.9699 4.524 12.8499 4.524H11.9019C11.8139 4.524 11.7459 4.5 11.6979 4.452C11.6579 4.404 11.6379 4.34 11.6379 4.26C11.6459 4.132 11.6979 3.976 11.7939 3.792C11.8899 3.608 12.0419 3.432 12.2499 3.264C12.4579 3.088 12.7259 2.94 13.0539 2.82C13.3819 2.7 13.7779 2.64 14.2419 2.64C14.7459 2.64 15.1699 2.704 15.5139 2.832C15.8659 2.952 16.1459 3.116 16.3539 3.324C16.5619 3.532 16.7139 3.776 16.8099 4.056C16.9059 4.336 16.9539 4.632 16.9539 4.944V8.712C16.9539 8.792 16.9259 8.86 16.8699 8.916C16.8139 8.972 16.7459 9 16.6659 9H15.6939C15.6059 9 15.5339 8.972 15.4779 8.916C15.4299 8.86 15.4059 8.792 15.4059 8.712V8.244C15.3019 8.396 15.1619 8.54 14.9859 8.676C14.8099 8.804 14.5939 8.912 14.3379 9C14.0899 9.08 13.7939 9.12 13.4499 9.12ZM13.8579 7.98C14.1379 7.98 14.3899 7.92 14.6139 7.8C14.8459 7.68 15.0259 7.496 15.1539 7.248C15.2899 6.992 15.3579 6.672 15.3579 6.288V6.036L14.1579 6.228C13.6859 6.3 13.3339 6.416 13.1019 6.576C12.8699 6.736 12.7539 6.932 12.7539 7.164C12.7539 7.34 12.8059 7.492 12.9099 7.62C13.0219 7.74 13.1619 7.832 13.3299 7.896C13.4979 7.952 13.6739 7.98 13.8579 7.98ZM21.1348 9C20.6548 9 20.2508 8.916 19.9228 8.748C19.5948 8.58 19.3508 8.332 19.1908 8.004C19.0308 7.668 18.9508 7.252 18.9508 6.756V4.032H18.0028C17.9228 4.032 17.8548 4.004 17.7988 3.948C17.7428 3.892 17.7148 3.824 17.7148 3.744V3.048C17.7148 2.968 17.7428 2.9 17.7988 2.844C17.8548 2.788 17.9228 2.76 18.0028 2.76H18.9508V0.767999C18.9508 0.687999 18.9748 0.62 19.0228 0.564C19.0788 0.508 19.1508 0.48 19.2388 0.48H20.2108C20.2908 0.48 20.3588 0.508 20.4148 0.564C20.4708 0.62 20.4988 0.687999 20.4988 0.767999V2.76H21.9988C22.0788 2.76 22.1468 2.788 22.2028 2.844C22.2588 2.9 22.2868 2.968 22.2868 3.048V3.744C22.2868 3.824 22.2588 3.892 22.2028 3.948C22.1468 4.004 22.0788 4.032 21.9988 4.032H20.4988V6.636C20.4988 6.964 20.5548 7.22 20.6668 7.404C20.7868 7.588 20.9908 7.68 21.2788 7.68H22.1068C22.1868 7.68 22.2548 7.708 22.3108 7.764C22.3668 7.82 22.3948 7.888 22.3948 7.968V8.712C22.3948 8.792 22.3668 8.86 22.3108 8.916C22.2548 8.972 22.1868 9 22.1068 9H21.1348ZM24.2993 9C24.2193 9 24.1513 8.972 24.0953 8.916C24.0393 8.86 24.0113 8.792 24.0113 8.712V4.032H23.0393C22.9593 4.032 22.8913 4.004 22.8353 3.948C22.7793 3.892 22.7513 3.824 22.7513 3.744V3.048C22.7513 2.968 22.7793 2.9 22.8353 2.844C22.8913 2.788 22.9593 2.76 23.0393 2.76H24.0113V2.268C24.0113 1.788 24.0993 1.392 24.2753 1.08C24.4513 0.76 24.7113 0.52 25.0553 0.36C25.3993 0.2 25.8353 0.12 26.3633 0.12H27.1793C27.2673 0.12 27.3353 0.148 27.3833 0.204C27.4393 0.26 27.4673 0.328 27.4673 0.408V1.104C27.4673 1.184 27.4393 1.252 27.3833 1.308C27.3353 1.364 27.2673 1.392 27.1793 1.392H26.4113C26.0913 1.392 25.8713 1.472 25.7513 1.632C25.6313 1.792 25.5713 2.024 25.5713 2.328V2.76H27.0593C27.1473 2.76 27.2153 2.788 27.2633 2.844C27.3193 2.9 27.3473 2.968 27.3473 3.048V3.744C27.3473 3.824 27.3193 3.892 27.2633 3.948C27.2153 4.004 27.1473 4.032 27.0593 4.032H25.5713V8.712C25.5713 8.792 25.5433 8.86 25.4873 8.916C25.4313 8.972 25.3633 9 25.2833 9H24.2993ZM30.8543 9.12C30.2143 9.12 29.6743 9.008 29.2343 8.784C28.8023 8.56 28.4703 8.244 28.2383 7.836C28.0143 7.428 27.8863 6.952 27.8543 6.408C27.8463 6.264 27.8423 6.088 27.8423 5.88C27.8423 5.672 27.8463 5.496 27.8543 5.352C27.8863 4.8 28.0183 4.324 28.2503 3.924C28.4903 3.516 28.8263 3.2 29.2583 2.976C29.6983 2.752 30.2303 2.64 30.8543 2.64C31.4783 2.64 32.0063 2.752 32.4383 2.976C32.8783 3.2 33.2143 3.516 33.4463 3.924C33.6863 4.324 33.8223 4.8 33.8543 5.352C33.8623 5.496 33.8663 5.672 33.8663 5.88C33.8663 6.088 33.8623 6.264 33.8543 6.408C33.8223 6.952 33.6903 7.428 33.4583 7.836C33.2343 8.244 32.9023 8.56 32.4623 8.784C32.0303 9.008 31.4943 9.12 30.8543 9.12ZM30.8543 7.932C31.2783 7.932 31.6063 7.8 31.8383 7.536C32.0703 7.264 32.1983 6.868 32.2223 6.348C32.2303 6.228 32.2343 6.072 32.2343 5.88C32.2343 5.688 32.2303 5.532 32.2223 5.412C32.1983 4.9 32.0703 4.508 31.8383 4.236C31.6063 3.964 31.2783 3.828 30.8543 3.828C30.4303 3.828 30.1023 3.964 29.8703 4.236C29.6383 4.508 29.5103 4.9 29.4863 5.412C29.4783 5.532 29.4743 5.688 29.4743 5.88C29.4743 6.072 29.4783 6.228 29.4863 6.348C29.5103 6.868 29.6383 7.264 29.8703 7.536C30.1023 7.8 30.4303 7.932 30.8543 7.932ZM35.3639 9C35.2839 9 35.2159 8.972 35.1599 8.916C35.1039 8.86 35.0759 8.792 35.0759 8.712V3.06C35.0759 2.972 35.1039 2.9 35.1599 2.844C35.2159 2.788 35.2839 2.76 35.3639 2.76H36.3359C36.4159 2.76 36.4839 2.788 36.5399 2.844C36.6039 2.9 36.6359 2.972 36.6359 3.06V3.552C36.8199 3.296 37.0559 3.1 37.3439 2.964C37.6399 2.828 37.9799 2.76 38.3639 2.76H38.8559C38.9439 2.76 39.0119 2.788 39.0599 2.844C39.1159 2.9 39.1439 2.968 39.1439 3.048V3.912C39.1439 3.992 39.1159 4.06 39.0599 4.116C39.0119 4.172 38.9439 4.2 38.8559 4.2H37.9199C37.5359 4.2 37.2359 4.308 37.0199 4.524C36.8119 4.74 36.7079 5.036 36.7079 5.412V8.712C36.7079 8.792 36.6799 8.86 36.6239 8.916C36.5679 8.972 36.4959 9 36.4079 9H35.3639ZM40.2478 9C40.1678 9 40.0998 8.972 40.0438 8.916C39.9878 8.86 39.9598 8.792 39.9598 8.712V3.048C39.9598 2.968 39.9878 2.9 40.0438 2.844C40.0998 2.788 40.1678 2.76 40.2478 2.76H41.1838C41.2638 2.76 41.3318 2.788 41.3878 2.844C41.4438 2.9 41.4718 2.968 41.4718 3.048V3.456C41.6398 3.232 41.8638 3.044 42.1438 2.892C42.4318 2.732 42.7718 2.648 43.1638 2.64C44.0758 2.624 44.7118 2.98 45.0718 3.708C45.2558 3.388 45.5198 3.132 45.8638 2.94C46.2158 2.74 46.6038 2.64 47.0278 2.64C47.4438 2.64 47.8198 2.736 48.1558 2.928C48.4998 3.12 48.7678 3.412 48.9598 3.804C49.1598 4.188 49.2598 4.676 49.2598 5.268V8.712C49.2598 8.792 49.2318 8.86 49.1758 8.916C49.1198 8.972 49.0518 9 48.9718 9H47.9878C47.9078 9 47.8398 8.972 47.7838 8.916C47.7278 8.86 47.6998 8.792 47.6998 8.712V5.364C47.6998 5.004 47.6478 4.72 47.5438 4.512C47.4398 4.296 47.2998 4.144 47.1238 4.056C46.9478 3.968 46.7518 3.924 46.5358 3.924C46.3598 3.924 46.1838 3.968 46.0078 4.056C45.8318 4.144 45.6878 4.296 45.5758 4.512C45.4638 4.72 45.4078 5.004 45.4078 5.364V8.712C45.4078 8.792 45.3798 8.86 45.3238 8.916C45.2678 8.972 45.1998 9 45.1198 9H44.1358C44.0478 9 43.9758 8.972 43.9198 8.916C43.8718 8.86 43.8478 8.792 43.8478 8.712V5.364C43.8478 5.004 43.7918 4.72 43.6798 4.512C43.5678 4.296 43.4238 4.144 43.2478 4.056C43.0718 3.968 42.8838 3.924 42.6838 3.924C42.4998 3.924 42.3198 3.972 42.1438 4.068C41.9678 4.156 41.8238 4.304 41.7118 4.512C41.5998 4.72 41.5438 5.004 41.5438 5.364V8.712C41.5438 8.792 41.5158 8.86 41.4598 8.916C41.4038 8.972 41.3358 9 41.2558 9H40.2478ZM52.4799 9.12C52.0639 9.12 51.6879 9.04 51.3519 8.88C51.0159 8.712 50.7479 8.492 50.5479 8.22C50.3559 7.94 50.2599 7.628 50.2599 7.284C50.2599 6.724 50.4839 6.28 50.9319 5.952C51.3879 5.616 51.9879 5.392 52.7319 5.28L54.3759 5.04V4.788C54.3759 4.452 54.2919 4.192 54.1239 4.008C53.9559 3.824 53.6679 3.732 53.2599 3.732C52.9719 3.732 52.7359 3.792 52.5519 3.912C52.3759 4.024 52.2439 4.176 52.1559 4.368C52.0919 4.472 51.9999 4.524 51.8799 4.524H50.9319C50.8439 4.524 50.7759 4.5 50.7279 4.452C50.6879 4.404 50.6679 4.34 50.6679 4.26C50.6759 4.132 50.7279 3.976 50.8239 3.792C50.9199 3.608 51.0719 3.432 51.2799 3.264C51.4879 3.088 51.7559 2.94 52.0839 2.82C52.4119 2.7 52.8079 2.64 53.2719 2.64C53.7759 2.64 54.1999 2.704 54.5439 2.832C54.8959 2.952 55.1759 3.116 55.3839 3.324C55.5919 3.532 55.7439 3.776 55.8399 4.056C55.9359 4.336 55.9839 4.632 55.9839 4.944V8.712C55.9839 8.792 55.9559 8.86 55.8999 8.916C55.8439 8.972 55.7759 9 55.6959 9H54.7239C54.6359 9 54.5639 8.972 54.5079 8.916C54.4599 8.86 54.4359 8.792 54.4359 8.712V8.244C54.3319 8.396 54.1919 8.54 54.0159 8.676C53.8399 8.804 53.6239 8.912 53.3679 9C53.1199 9.08 52.8239 9.12 52.4799 9.12ZM52.8879 7.98C53.1679 7.98 53.4199 7.92 53.6439 7.8C53.8759 7.68 54.0559 7.496 54.1839 7.248C54.3199 6.992 54.3879 6.672 54.3879 6.288V6.036L53.1879 6.228C52.7159 6.3 52.3639 6.416 52.1319 6.576C51.8999 6.736 51.7839 6.932 51.7839 7.164C51.7839 7.34 51.8359 7.492 51.9399 7.62C52.0519 7.74 52.1919 7.832 52.3599 7.896C52.5279 7.952 52.7039 7.98 52.8879 7.98ZM59.7674 9.12C59.2874 9.12 58.8754 9.064 58.5314 8.952C58.1954 8.84 57.9194 8.7 57.7034 8.532C57.4874 8.364 57.3274 8.196 57.2234 8.028C57.1194 7.86 57.0634 7.72 57.0554 7.608C57.0474 7.52 57.0714 7.452 57.1274 7.404C57.1914 7.348 57.2594 7.32 57.3314 7.32H58.2794C58.3114 7.32 58.3394 7.324 58.3634 7.332C58.3874 7.34 58.4194 7.364 58.4594 7.404C58.5634 7.492 58.6714 7.584 58.7834 7.68C58.9034 7.776 59.0434 7.86 59.2034 7.932C59.3634 7.996 59.5634 8.028 59.8034 8.028C60.1154 8.028 60.3754 7.968 60.5834 7.848C60.7994 7.72 60.9074 7.54 60.9074 7.308C60.9074 7.14 60.8594 7.004 60.7634 6.9C60.6754 6.796 60.5074 6.704 60.2594 6.624C60.0114 6.536 59.6594 6.444 59.2034 6.348C58.7554 6.244 58.3834 6.112 58.0874 5.952C57.7914 5.792 57.5714 5.592 57.4274 5.352C57.2834 5.112 57.2114 4.832 57.2114 4.512C57.2114 4.2 57.3034 3.904 57.4874 3.624C57.6794 3.336 57.9594 3.1 58.3274 2.916C58.7034 2.732 59.1674 2.64 59.7194 2.64C60.1514 2.64 60.5274 2.696 60.8474 2.808C61.1674 2.912 61.4314 3.044 61.6394 3.204C61.8554 3.364 62.0194 3.528 62.1314 3.696C62.2434 3.856 62.3034 3.996 62.3114 4.116C62.3194 4.204 62.2954 4.276 62.2394 4.332C62.1834 4.38 62.1194 4.404 62.0474 4.404H61.1594C61.1194 4.404 61.0834 4.396 61.0514 4.38C61.0194 4.364 60.9874 4.344 60.9554 4.32C60.8674 4.24 60.7714 4.156 60.6674 4.068C60.5634 3.98 60.4354 3.904 60.2834 3.84C60.1394 3.768 59.9474 3.732 59.7074 3.732C59.4034 3.732 59.1714 3.8 59.0114 3.936C58.8514 4.064 58.7714 4.228 58.7714 4.428C58.7714 4.564 58.8074 4.684 58.8794 4.788C58.9594 4.884 59.1154 4.976 59.3474 5.064C59.5794 5.152 59.9314 5.244 60.4034 5.34C60.9394 5.436 61.3634 5.58 61.6754 5.772C61.9954 5.956 62.2194 6.172 62.3474 6.42C62.4834 6.66 62.5514 6.928 62.5514 7.224C62.5514 7.584 62.4434 7.908 62.2274 8.196C62.0194 8.484 61.7074 8.712 61.2914 8.88C60.8834 9.04 60.3754 9.12 59.7674 9.12ZM63.9581 9C63.8781 9 63.8101 8.972 63.7541 8.916C63.6981 8.86 63.6701 8.792 63.6701 8.712V3.048C63.6701 2.968 63.6981 2.9 63.7541 2.844C63.8101 2.788 63.8781 2.76 63.9581 2.76H64.9541C65.0421 2.76 65.1101 2.788 65.1581 2.844C65.2141 2.9 65.2421 2.968 65.2421 3.048V8.712C65.2421 8.792 65.2141 8.86 65.1581 8.916C65.1101 8.972 65.0421 9 64.9541 9H63.9581ZM63.9101 1.728C63.8221 1.728 63.7501 1.704 63.6941 1.656C63.6461 1.6 63.6221 1.528 63.6221 1.44V0.576C63.6221 0.496 63.6461 0.428 63.6941 0.372C63.7501 0.316 63.8221 0.288 63.9101 0.288H65.0021C65.0901 0.288 65.1621 0.316 65.2181 0.372C65.2741 0.428 65.3021 0.496 65.3021 0.576V1.44C65.3021 1.528 65.2741 1.6 65.2181 1.656C65.1621 1.704 65.0901 1.728 65.0021 1.728H63.9101Z" fill="#001D56"/>
</svg>
